# xmcd
#
# Track frame offsets: 
#        150
#        18140
#        26894
#        45867
#        57460
#        75495
#        89169
#        101387
#        116749
#        130195
#        143389
#        170832
#
# Disc length: 2423 seconds
#
# Revision: 0
# Processed by: cddbd v1.5.1PL2 Copyright (c) Steve Scherf et al.
# Submitted via: ExactAudioCopy v0.95b2
#
DISCID=9609750c
DTITLE=Various Artist - Country Christmas
DYEAR=1900
DGENRE=Country
TTITLE0=Have Yourself A Merry Little Christmas - Vince Gill
TTITLE1=I'll Be Home For Christmas - Elvis
TTITLE2=Little Drummer Boy - Mannheim Steamroller
TTITLE3=Please Daddy - John Denver
TTITLE4=Santa's Lament - Father Guido Sarducci
TTITLE5=Sleigh Ride - Arthur Fiedler and the Boston Pops
TTITLE6=How Do I Wrap My Heart Up For Christmas - Randy Travis
TTITLE7=White Christmas Makes Me Blue - Randy Travis
TTITLE8=Blue Christmas - Clay Walker
TTITLE9=White Christmas - Garth Brooks
TTITLE10=Have Yourself A Merry Little Christmas - Travis Tritt
TTITLE11=Hark The Herald Angels Sing - Frank Sinatra
EXTD=
EXTT0=
EXTT1=
EXTT2=
EXTT3=
EXTT4=
EXTT5=
EXTT6=
EXTT7=
EXTT8=
EXTT9=
EXTT10=
EXTT11=
PLAYORDER=
